<svg width="245" height="246" viewBox="0 0 245 246" fill="none" xmlns="http://www.w3.org/2000/svg">
<g id="logo" clip-path="url(#clip0_0_10)">
<path id="Vector" d="M74.816 235.873C60.2602 229.725 47.0364 220.808 35.8785 209.62C24.6904 198.462 15.7747 185.238 9.6261 170.682C3.2422 155.597 -0.0319194 139.379 -0.000197766 122.999C-0.0320008 106.619 3.24212 90.4013 9.6261 75.3166C15.7749 60.7609 24.6905 47.537 35.8785 36.3788C47.0367 25.1911 60.2605 16.2755 74.816 10.1268C89.9005 3.74262 106.118 0.468419 122.498 0.500246C138.878 0.468344 155.096 3.74263 170.181 10.127C184.737 16.2755 197.961 25.191 209.12 36.379C220.308 47.5373 229.224 60.7611 235.373 75.3169C241.757 90.4014 245.032 106.619 245 122.999C245.032 139.379 241.757 155.597 235.373 170.682C229.224 185.238 220.308 198.462 209.12 209.62C197.961 220.809 184.737 229.725 170.181 235.873C155.096 242.258 138.878 245.532 122.498 245.5C106.118 245.532 89.9005 242.258 74.816 235.873ZM76.0087 12.9479C61.8168 18.9431 48.9236 27.6361 38.0444 38.5446C27.1361 49.4237 18.4432 62.3169 12.4483 76.5088C6.22369 91.2161 3.0313 107.028 3.0623 122.999C3.03124 138.969 6.22363 154.782 12.4483 169.49C18.4432 183.682 27.1361 196.576 38.0444 207.455C48.9236 218.363 61.8168 227.057 76.0087 233.052C90.716 239.276 106.528 242.469 122.498 242.438C138.469 242.469 154.282 239.276 168.99 233.052C183.182 227.057 196.076 218.364 206.955 207.455C217.863 196.576 226.556 183.682 232.552 169.49C238.776 154.782 241.969 138.969 241.938 122.999C241.969 107.028 238.776 91.2161 232.552 76.5088C226.556 62.3169 217.863 49.4237 206.955 38.5446C196.076 27.6359 183.182 18.9429 168.99 12.9479C154.282 6.72331 138.469 3.53098 122.498 3.56203C106.528 3.53106 90.7156 6.72353 76.0083 12.9482L76.0087 12.9479ZM79.5856 224.586C66.485 219.053 54.5833 211.029 44.5408 200.959C34.4715 190.917 26.4474 179.015 20.9137 165.915C15.168 152.339 12.2213 137.742 12.2498 123C12.2213 108.258 15.168 93.6618 20.9137 80.0853C26.4474 66.9851 34.4715 55.0836 44.5408 45.0413C54.5832 34.9719 66.4848 26.9477 79.5853 21.4142C93.1615 15.6683 107.758 12.7215 122.5 12.7502C137.242 12.7214 151.839 15.6682 165.415 21.4142C178.515 26.9478 190.417 34.9719 200.459 45.0413C210.528 55.0836 218.552 66.985 224.086 80.0853C229.832 93.6618 232.778 108.258 232.75 123C232.779 137.742 229.832 152.339 224.086 165.915C218.553 179.015 210.528 190.917 200.459 200.959C190.416 211.029 178.515 219.053 165.414 224.586C151.838 230.332 137.242 233.279 122.5 233.25C107.758 233.279 93.1613 230.332 79.5848 224.586L79.5856 224.586ZM73.1686 186.274C78.708 188.363 85.6024 190.963 97.3085 190.963C117.63 190.963 130.32 184.164 137.387 178.46C146.504 171.101 151.733 160.995 151.733 150.733C151.733 137.639 146.098 129.96 137.004 121.815L121.017 107.444C114.111 101.226 107.368 94.2049 107.368 82.8357C107.368 69.8262 118.669 60.7416 134.848 60.7416C141.267 60.7416 148.073 62.8241 153.057 66.3104C157.369 69.3281 162.51 74.8938 162.51 84.2746C162.512 87.6977 162.013 91.1026 161.03 94.3815L160.894 94.8698H163.051L175.443 60.5657L172.748 60.0252C171.523 62.8263 169.95 64.6942 166.282 64.6942C162.901 64.6942 159.575 63.5598 155.724 62.2466C150.474 60.4559 143.939 58.2286 134.85 58.2286C122.379 58.2286 110.697 61.809 101.959 68.3104C93.1702 74.8492 88.3296 83.6434 88.3296 93.0732C88.3296 106.851 95.4391 116.107 106.113 125.768L118.864 137.438C126.417 144.415 129.64 151.077 129.64 159.713C129.64 168.218 126.621 175.399 120.908 180.48C115.045 185.694 106.574 188.45 96.4113 188.45C89.3553 188.45 81.7516 186.109 76.0696 182.187C71.3369 178.921 65.6958 173.057 65.6958 163.665C65.6958 159.748 66.763 156.696 67.9988 153.161L68.0324 153.065H65.6953L52.9443 188.807L55.4577 189.347C56.0276 186.129 59.0284 183.603 62.282 183.603C66.0885 183.605 69.3696 184.842 73.1678 186.275L73.1686 186.274ZM175.074 121.766C174.021 124.448 173.689 124.877 170.511 128.995L169.858 129.841C169.579 130.22 169.281 130.604 168.976 130.996C167.423 132.997 165.663 135.264 165.663 137.923C165.663 141.23 168.369 142.735 170.883 142.735C174.145 142.735 176.512 140.368 176.512 137.107C176.512 136.21 176.354 135.147 175.973 132.578L175.795 131.374C175.005 125.467 175.071 124.967 175.442 122.191L175.486 121.859C178.055 125.216 179.304 128.631 180.308 131.376C181.807 135.474 182.889 138.435 187.151 138.435C190.087 138.435 192.477 135.866 192.477 132.708C192.477 130.373 190.892 128.581 187.768 127.383C185.49 126.521 179.44 124.231 175.795 121.552C176.922 121.424 178.054 121.361 179.187 121.363C181.504 121.363 183.801 121.604 186.539 121.965C186.931 122.017 187.321 122.076 187.711 122.134C188.812 122.326 189.925 122.44 191.043 122.472C194.522 122.472 196.77 120.384 196.77 117.153C196.77 114.155 194.284 111.524 191.45 111.524C188.878 111.524 186.449 113.661 183.876 115.923C181.482 118.034 178.636 120.305 175.69 121.144C176.808 118.307 177 118.005 180.811 113.062C181.089 112.685 181.385 112.303 181.687 111.914C183.246 109.907 185.005 107.639 185.005 104.975C185.005 101.673 182.299 100.168 179.785 100.168C176.524 100.168 174.157 102.535 174.157 105.797C174.157 106.689 174.315 107.751 174.696 110.317L174.875 111.524C175.68 117.584 175.695 117.94 175.283 121.039C172.727 117.702 171.461 114.301 170.441 111.569C168.904 107.443 167.794 104.464 163.513 104.464C160.58 104.464 158.194 107.036 158.194 110.197C158.194 112.533 159.778 114.323 162.902 115.516C166.787 116.989 171.659 118.984 174.875 121.347C173.741 121.475 172.601 121.539 171.46 121.537C169.137 121.537 166.85 121.298 164.131 120.939C163.724 120.885 163.318 120.824 162.915 120.763C161.829 120.57 160.73 120.458 159.628 120.427C156.149 120.427 153.9 122.515 153.9 125.746C153.9 128.745 156.385 131.375 159.219 131.375C161.785 131.375 164.215 129.237 166.788 126.975C168.845 125.167 171.941 122.658 175.067 121.759L175.079 121.755L175.074 121.766Z" fill="#3F5D45"/>
</g>
<defs>
<clipPath id="clip0_0_10">
<rect width="245" height="245" fill="white" transform="translate(0 0.5)"/>
</clipPath>
</defs>
</svg>
